# File created by Blade
# Date/Time:  Thu Jan 22 19:01:15 2015
# Frame Rate: 120.000 fps
#------------------------------------------------------
:FULLY-SPECIFIED
:DEGREES
1380
root -3.028198 32.932386 0.598849 9.568905 -1.753987 2.674450
RightUpLeg -1.540077 -5.528874 -1.710638
RightLeg 0.536439 -0.000000 -0.000000
RightFoot -14.235984 -4.506364 2.298097
RightToeBase 5.707594 -0.000000 -0.000000
LeftUpLeg -2.023970 3.462195 1.090746
LeftLeg 2.661242 -0.000000 -0.000000
LeftFoot -13.596781 2.270880 -9.739583
LeftToeBase 8.161368 -0.000000 -0.000000
Spine -11.761548 -2.248887 -0.544086
RightShoulder -16.874144 -23.628283 -7.239255
RightArm 24.917673 -20.027469 73.571007
RightForeArm 0.552427 0.000000 19.058684
RightHand 12.800700 -0.000000 -5.605263
RightHandThumb1 -24.326973 -0.000000 -32.862282
LeftShoulder -22.771599 9.329140 15.010004
LeftArm 5.854710 12.144652 -81.763871
LeftForeArm 16.091284 0.000000 12.357356
LeftHand -4.154342 -0.000000 -1.484560
LeftHandThumb1 -26.253704 0.000000 33.147579
Head -1.232517 4.138301 -1.738442
1381
root -3.014171 32.933708 0.582313 9.527089 -1.731494 2.707117
RightUpLeg -1.532408 -5.529704 -1.760604
RightLeg 0.552215 -0.000000 -0.000000
RightFoot -14.248319 -4.560772 2.273518
RightToeBase 5.723320 -0.000000 -0.000000
LeftUpLeg -2.018016 3.437494 1.039324
LeftLeg 2.660423 -0.000000 -0.000000
LeftFoot -13.562468 2.274866 -9.708154
LeftToeBase 8.154224 -0.000000 -0.000000
Spine -11.743927 -2.233802 -0.576120
RightShoulder -16.909975 -23.608560 -7.248300
RightArm 25.098348 -19.862893 73.393600
RightForeArm 0.545611 -0.000000 19.213760
RightHand 12.936506 0.000000 -5.570570
RightHandThumb1 -24.326973 -0.000000 -32.862282
LeftShoulder -22.775523 9.384329 14.996327
LeftArm 5.956932 12.246389 -81.654302
LeftForeArm 16.346376 0.000000 12.695351
LeftHand -4.134425 -0.000000 -1.583354
LeftHandThumb1 -26.253704 0.000000 33.147579
Head -1.236752 4.118663 -1.780809
1382
root -3.004232 32.934940 0.563361 9.493862 -1.704342 2.724135
RightUpLeg -1.542193 -5.529831 -1.786076
RightLeg 0.576998 -0.000000 -0.000000
RightFoot -14.249781 -4.593831 2.272503
RightToeBase 5.729112 -0.000000 -0.000000
LeftUpLeg -2.033093 3.425800 1.015743
LeftLeg 2.678764 -0.000000 -0.000000
LeftFoot -13.542863 2.227354 -9.729599
LeftToeBase 8.180101 -0.000000 -0.000000
Spine -11.722616 -2.253702 -0.610113
RightShoulder -16.935414 -23.595979 -7.221306
RightArm 25.313442 -19.636537 73.183661
RightForeArm 0.523979 -0.000000 19.434269
RightHand 12.945247 -0.000000 -5.409636
RightHandThumb1 -24.326973 -0.000000 -32.862282
LeftShoulder -22.822335 9.483290 14.973992
LeftArm 6.092953 12.436462 -81.520233
LeftForeArm 16.515658 -0.000000 13.061393
LeftHand -4.121648 -0.000000 -1.741038
LeftHandThumb1 -26.253704 0.000000 33.147579
Head -1.268936 4.124514 -1.785559
1383
root -2.995271 32.935428 0.546239 9.439355 -1.666199 2.740160
RightUpLeg -1.523052 -5.531239 -1.809473
RightLeg 0.599122 -0.000000 -0.000000
RightFoot -14.265451 -4.656241 2.268048
RightToeBase 5.769157 -0.000000 -0.000000
LeftUpLeg -2.023953 3.418058 0.996831
LeftLeg 2.695011 -0.000000 -0.000000
LeftFoot -13.523741 2.177827 -9.738670
LeftToeBase 8.198267 -0.000000 -0.000000
Spine -11.679663 -2.277651 -0.661811
RightShoulder -16.991520 -23.589467 -7.152384
RightArm 25.570873 -19.414970 72.921925
RightForeArm 0.489807 -0.000000 19.659594
RightHand 13.074566 -0.000000 -5.271144
RightHandThumb1 -24.326973 -0.000000 -32.862282
LeftShoulder -22.842435 9.561623 14.988382
LeftArm 6.178058 12.678186 -81.402692
LeftForeArm 16.735763 -0.000000 13.487854
LeftHand -4.304682 -0.000000 -1.878711
LeftHandThumb1 -26.253704 0.000000 33.147579
Head -1.315310 4.103249 -1.755239
1384
root -2.985139 32.936279 0.529262 9.406807 -1.647420 2.757687
RightUpLeg -1.528748 -5.504766 -1.837079
RightLeg 0.620926 -0.000000 -0.000000
RightFoot -14.274048 -4.724093 2.268262
RightToeBase 5.795556 -0.000000 -0.000000
LeftUpLeg -2.038366 3.463327 0.967973
LeftLeg 2.718638 -0.000000 -0.000000
LeftFoot -13.500274 2.102360 -9.724537
LeftToeBase 8.195079 -0.000000 -0.000000
Spine -11.663991 -2.312372 -0.699665
RightShoulder -17.011885 -23.486107 -7.126097
RightArm 25.729983 -19.122501 72.692667
RightForeArm 0.341192 -0.000000 19.923471
RightHand 13.097848 -0.000000 -5.042159
RightHandThumb1 -24.326973 -0.000000 -32.862282
LeftShoulder -22.858414 9.613779 14.999919
LeftArm 6.157110 12.862197 -81.312777
LeftForeArm 16.983783 -0.000000 13.958977
LeftHand -4.218510 -0.000000 -2.023708
LeftHandThumb1 -26.253704 0.000000 33.147579
Head -1.342504 4.129537 -1.726427
1385
root -2.977632 32.937146 0.513707 9.369837 -1.639020 2.768952
RightUpLeg -1.532269 -5.480713 -1.858591
RightLeg 0.650336 -0.000000 -0.000000
RightFoot -14.278157 -4.767869 2.257430
RightToeBase 5.782154 -0.000000 -0.000000
LeftUpLeg -2.038037 3.502494 0.950422
LeftLeg 2.731464 -0.000000 -0.000000
LeftFoot -13.480487 2.041091 -9.667469
LeftToeBase 8.220150 -0.000000 -0.000000
Spine -11.653425 -2.329909 -0.751564
RightShoulder -17.059404 -23.423538 -7.066786
RightArm 25.971131 -18.820490 72.408990
RightForeArm 0.172876 -0.000000 20.184118
RightHand 13.179944 -0.000000 -4.913236
RightHandThumb1 -24.326973 -0.000000 -32.862282
LeftShoulder -22.893764 9.739028 14.999797
LeftArm 6.233084 13.146563 -81.190025
LeftForeArm 17.162395 -0.000000 14.407608
LeftHand -4.136588 -0.000000 -2.210727
LeftHandThumb1 -26.253704 0.000000 33.147579
Head -1.361017 4.151676 -1.685152
1386
root -2.966794 32.938490 0.493909 9.355102 -1.623441 2.781884
RightUpLeg -1.567436 -5.459978 -1.885287
RightLeg 0.685344 -0.000000 -0.000000
RightFoot -14.286340 -4.811137 2.282516
RightToeBase 5.820926 -0.000000 -0.000000
LeftUpLeg -2.079696 3.539799 0.919286
LeftLeg 2.767634 -0.000000 -0.000000
LeftFoot -13.462999 1.986024 -9.653930
LeftToeBase 8.177533 -0.000000 -0.000000
Spine -11.656868 -2.377903 -0.795517
RightShoulder -17.085722 -23.335622 -7.009555
RightArm 26.236902 -18.493912 72.075765
RightForeArm -0.043536 -0.000000 20.477357
RightHand 13.211334 -0.000000 -4.620542
RightHandThumb1 -24.326973 -0.000000 -32.862282
LeftShoulder -22.953025 9.891087 14.987960
LeftArm 6.325876 13.586846 -81.059825
LeftForeArm 17.315691 -0.000000 14.865187
LeftHand -4.071990 0.000000 -2.343355
LeftHandThumb1 -26.253704 0.000000 33.147579
Head -1.385157 4.140841 -1.642027
1387
root -2.958926 32.939128 0.475980 9.318738 -1.603074 2.780609
RightUpLeg -1.573301 -5.471007 -1.893388
RightLeg 0.712481 -0.000000 -0.000000
RightFoot -14.286405 -4.821368 2.273152
RightToeBase 5.792275 -0.000000 -0.000000
LeftUpLeg -2.096817 3.568755 0.912354
LeftLeg 2.804280 -0.000000 -0.000000
LeftFoot -13.466990 1.937693 -9.616168
LeftToeBase 8.234411 -0.000000 -0.000000
Spine -11.641031 -2.433761 -0.841431
RightShoulder -17.113623 -23.234385 -6.949116
RightArm 26.552209 -18.305739 71.619269
RightForeArm -0.122370 0.000000 20.780220
RightHand 13.298006 0.000000 -4.626003
RightHandThumb1 -24.326973 -0.000000 -32.862282
LeftShoulder -22.982433 9.961286 15.041775
LeftArm 6.301141 13.908609 -81.028691
LeftForeArm 17.791381 -0.000000 15.284480
LeftHand -4.013833 -0.000000 -2.324763
LeftHandThumb1 -26.253704 0.000000 33.147579
Head -1.382124 4.156554 -1.524570
1388
root -2.949621 32.940002 0.457576 9.291311 -1.599259 2.783445
RightUpLeg -1.593564 -5.474919 -1.911520
RightLeg 0.743406 -0.000000 -0.000000
RightFoot -14.281318 -4.819305 2.283411
RightToeBase 5.764553 -0.000000 -0.000000
LeftUpLeg -2.115335 3.576337 0.896053
LeftLeg 2.830189 -0.000000 -0.000000
LeftFoot -13.462285 1.919059 -9.597999
LeftToeBase 8.214872 -0.000000 -0.000000
Spine -11.626985 -2.455205 -0.889884
RightShoulder -17.153058 -23.101469 -6.927545
RightArm 26.851840 -18.064417 71.182273
RightForeArm -0.349042 0.000000 21.070015
RightHand 13.355582 -0.000000 -4.431335
RightHandThumb1 -24.326973 -0.000000 -32.862282
LeftShoulder -23.026430 10.046676 15.076218
LeftArm 6.349633 14.462863 -80.925592
LeftForeArm 17.844869 -0.000000 15.630890
LeftHand -3.935336 -0.000000 -2.363719
LeftHandThumb1 -26.253704 0.000000 33.147579
Head -1.415694 4.168932 -1.457086
1389
root -2.942272 32.941035 0.443743 9.256636 -1.638788 2.786023
RightUpLeg -1.597959 -5.431167 -1.933774
RightLeg 0.757172 -0.000000 -0.000000
RightFoot -14.276288 -4.815924 2.306289
RightToeBase 5.796188 -0.000000 -0.000000
LeftUpLeg -2.099200 3.655014 0.875564
LeftLeg 2.827696 -0.000000 -0.000000
LeftFoot -13.442126 1.871004 -9.590634
LeftToeBase 8.218201 -0.000000 -0.000000
Spine -11.636973 -2.478296 -0.956171
RightShoulder -17.139241 -22.980893 -6.913311
RightArm 27.156564 -17.772059 70.743293
RightForeArm -0.611682 -0.000000 21.428305
RightHand 13.259294 -0.000000 -4.356583
RightHandThumb1 -24.326973 -0.000000 -32.862282
LeftShoulder -23.079954 10.175739 15.127645
LeftArm 6.400216 14.870051 -80.860827
LeftForeArm 17.938040 0.000000 15.943484
LeftHand -3.829562 -0.000000 -2.411237
LeftHandThumb1 -26.253704 0.000000 33.147579
Head -1.381903 4.192486 -1.337338
